<svg width="70" height="70" viewBox="0 0 70 70" fill="none" xmlns="http://www.w3.org/2000/svg">
<path d="M50.742 41.8672C49.8905 41.4297 45.6483 39.3516 44.8593 39.0703C44.0702 38.7734 43.4921 38.6328 42.9218 39.5078C42.3437 40.375 40.7031 42.3047 40.1875 42.8906C39.6875 43.4688 39.1797 43.5391 38.3281 43.1094C33.2657 40.5781 29.9454 38.5938 26.6095 32.8672C25.7267 31.3438 27.4923 31.4531 29.1407 28.1641C29.422 27.5859 29.2813 27.0938 29.0626 26.6563C28.8439 26.2188 27.1251 21.9844 26.4064 20.2578C25.7111 18.5781 24.9923 18.8125 24.4689 18.7812C23.9689 18.75 23.3986 18.75 22.8205 18.75C22.2424 18.75 21.3127 18.9688 20.5236 19.8203C19.7346 20.6875 17.5081 22.7734 17.5081 27.0078C17.5081 31.2422 20.594 35.3437 21.0158 35.9219C21.4533 36.5 27.0861 45.1875 35.7344 48.9297C41.2031 51.2891 43.3437 51.4922 46.078 51.0859C47.7421 50.8359 51.1717 49.0078 51.8826 46.9844C52.5936 44.9688 52.5936 43.2422 52.3826 42.8828C52.1717 42.5 51.5936 42.2813 50.742 41.8672Z" fill="#6AB5FF"/>
<path d="M67.2809 21.4375C65.5153 17.2422 62.984 13.4766 59.7575 10.2422C56.531 7.01563 52.7654 4.47656 48.5623 2.71875C44.2655 0.914063 39.7031 0 35 0H34.8438C30.1094 0.0234375 25.5236 0.960938 21.2111 2.80469C17.0471 4.58594 13.3128 7.11719 10.1175 10.3438C6.92223 13.5703 4.41445 17.3203 2.6801 21.5C0.883245 25.8281 -0.022994 30.4297 0.000443219 35.1641C0.0238804 40.5859 1.32074 45.9688 3.7504 50.7812V62.6562C3.7504 64.6406 5.35975 66.25 7.3441 66.25H19.2268C24.0392 68.6797 29.422 69.9766 34.8438 70H35.0078C39.6874 70 44.2265 69.0938 48.4998 67.3203C52.6795 65.5781 56.4372 63.0781 59.6559 59.8828C62.8825 56.6875 65.4215 52.9531 67.1949 48.7891C69.0386 44.4766 69.9761 39.8906 69.9996 35.1562C70.023 30.3984 69.1011 25.7812 67.2809 21.4375ZM55.4763 55.6562C49.9998 61.0781 42.7343 64.0625 35 64.0625H34.8672C30.1563 64.0391 25.4767 62.8672 21.3439 60.6641L20.6877 60.3125H9.68782V49.3125L9.33626 48.6562C7.13317 44.5234 5.96131 39.8438 5.93787 35.1328C5.90662 27.3438 8.88315 20.0312 14.344 14.5234C19.7971 9.01562 27.086 5.96875 34.875 5.9375H35.0078C38.914 5.9375 42.703 6.69531 46.2733 8.19531C49.7576 9.65625 52.8826 11.7578 55.5701 14.4453C58.2497 17.125 60.3591 20.2578 61.82 23.7422C63.3356 27.3516 64.0934 31.1797 64.0778 35.1328C64.0309 42.9141 60.9762 50.2031 55.4763 55.6562Z" fill="#6AB5FF"/>
</svg>
